<svg data-v-46eee8e8="" xmlns="http://www.w3.org/2000/svg" viewBox="0 0 451.552 184.057" id="imua-logo">
    <g id="Group_6115" data-name="Group 6115" transform="translate(-0.565 -16.487)">
        <path id="Path_8566" data-name="Path 8566"
            d="M256.6,101.048c-5.774-.492-8.357-4.224-10.823-8.5q-4.871-8.433-9.752-16.86-12.01-20.95-24.19-41.8c-11.1-18.882-32.6-19.017-43.828-.286-7.756,12.936-15.5,25.9-22.6,39.2-3.836,7.19-5.741,5.67-8.983-.215-6.866-12.46-14.158-24.684-21.28-37-12.361-21.382-33.672-21.394-46.054,0q-15.4,26.606-30.72,53.249c-3.292,5.715-6.211,12.373-14.665,10.019-8.042-2.238-7.131-9.173-7.119-15.464.031-17.661-.024-35.323.033-52.982.017-5.249-.6-10.235-7.283-10.22-7.056.017-6.762,5.5-6.758,10.469q.014,14.529.009,29.055c.009,9.4-.057,18.8.024,28.2.116,13.276,6.374,21.959,17.775,24.866,11.375,2.9,21.162-1.514,27.82-12.888C59.554,80.479,70.7,60.951,82.048,41.542,88.06,31.26,96.024,31.2,102.11,41.466c7.985,13.463,15.672,27.1,23.523,40.645,8.461,14.6,21.749,14.852,30.354.428,7.874-13.2,15.438-26.579,23.144-39.874,6.874-11.857,14.509-11.928,21.349-.149q12.276,21.128,24.495,42.289,4.68,8.121,9.333,16.254c4.366,7.649,10.41,12.6,19.275,13.991,5.017.783,8.794-.861,9.74-5.842C264.223,104.47,261.018,101.424,256.6,101.048Z"
            transform="translate(0 15.636)" fill="#c23584" stroke="#c23584" stroke-width="4"></path>
        <path id="Path_8567" data-name="Path 8567"
            d="M310.562,100c-5.774-.492-8.357-4.224-10.823-8.5-10.961-18.974-22.014-37.9-32.849-56.942-3.784-6.651-8.659-11.372-16.136-13.212a20.152,20.152,0,0,0-11.375-.535A21.778,21.778,0,0,0,226.841,28.4l-.128.265a41.521,41.521,0,0,0-5.584,7.609q-15.4,26.606-30.72,53.249a39.867,39.867,0,0,1-7.786,9.854c-8.792,4.222-21.4,2.084-25.867-6.4-9.617-18.286-19.069-36.657-28.66-54.955h0c-.021-.059-.364-.852-.393-.908-4.227-8.345-8.269-14.208-16.7-17.283-4.771-1.738-8.794-.856-10.686,3.846-1.8,4.475.755,8.084,5.021,9.31a13.075,13.075,0,0,1,4.643,2.353c2.148,2.11,3.6,5.208,5.114,8.146a9.742,9.742,0,0,0,.468.911l.925,1.783c.012.031.028.057.038.085l0,0q13.486,26.052,27,52.086c9.13,17.546,30.365,22.955,45.309,13.759,4.52-2.148,8.487-5.937,11.67-11.356,11.389-19.381,22.55-38.9,33.906-58.3,6.337-10.823,14.14-10.894,20.5-.071q7.33,12.474,14.568,25-8.884.053-17.768.14c-5.118.045-8.191,2.526-7.952,7.765.234,5.1,3.995,6.415,8.368,6.405q12.737-.028,25.474-.227,5.336,9.274,10.66,18.556c4.366,7.649,10.41,12.6,19.272,13.991,5.019.783,8.794-.861,9.743-5.842C318.188,103.425,314.983,100.378,310.562,100Z"
            transform="translate(132.665 14.893)" fill="#c23584" stroke="#c23584" stroke-width="4"></path>
        <path id="Path_8568" data-name="Path 8568" d="M9.5,26.092a6.8,6.8,0,1,0-6.8-6.8A6.8,6.8,0,0,0,9.5,26.092Z"
            transform="translate(0.18 6)" fill="#c23584" stroke="#c23584" stroke-width="4"></path>
    </g>
</svg>